<svg xmlns="http://www.w3.org/2000/svg" width="40" height="40" viewBox="0 0 40 40">
  <g id="icon_cart" transform="translate(19970 21871)">
    <circle id="Ellipse_34" data-name="Ellipse 34" cx="20" cy="20" r="20" transform="translate(-19970 -21871)" fill="none"/>
    <g id="shopping-cart" transform="translate(-19960 -21861.178)">
      <g id="Group_539" data-name="Group 539" transform="translate(0 0.178)">
        <path id="Path_395" data-name="Path 395" d="M16.37,13.258a3.575,3.575,0,0,0,1.274-1.807l2.369-7.015H4.782L4.614,2.572A2.625,2.625,0,0,0,2,.178H0V1.74H2a1.057,1.057,0,0,1,1.059.971L4.28,16.269v.007A2.615,2.615,0,0,0,6.447,18.6a2.3,2.3,0,0,0,4.354.051h1.836a2.3,2.3,0,1,0,0-1.562H10.8A2.3,2.3,0,0,0,6.5,17a1.059,1.059,0,0,1-.663-.879l-.195-2.158h8.616A3.493,3.493,0,0,0,16.37,13.258ZM14.8,17.131a.742.742,0,1,1-.742.742A.743.743,0,0,1,14.8,17.131Zm-6.172,0a.742.742,0,1,1-.742.742A.743.743,0,0,1,8.633,17.131ZM5.5,12.4h0L4.923,6H17.837L16.161,10.96l-.007.02a2.012,2.012,0,0,1-1.9,1.424Z" transform="translate(0 -0.178)" fill="#1a1a1a"/>
      </g>
    </g>
  </g>
</svg>
